<svg xmlns="http://www.w3.org/2000/svg" fill="none" viewBox="0 0 134 32" class="w-[110px] lg:w-[132px] transition-transform duration-500 ease-in-out group-hover:scale-95"><path fill="black" d="M14.477 8.338h4.22V16.1l-2.127 2.127-2.127-2.093c-.27-3.376-2.498-5.097-4.827-5.097-2.363 0-4.287 1.789-4.59 5.063H.84C1.143 11.207 4.755 8 8.873 8c2.319 0 4.297.95 5.604 2.657v-2.32Zm0 10.666h-.405c-.743 2.33-2.498 3.544-4.422 3.544-2.093 0-3.815-1.18-4.456-3.848l-2.16-1.856-2.06 2.16c.71 4.05 4.288 6.582 7.9 6.582 2.327 0 4.296-.985 5.603-2.705v2.368h4.22v-6.245h-4.22Zm23.56-2.093v1.013H25.162c.417 2.772 2.344 4.692 4.877 4.692 1.789 0 3.274-.878 4.22-2.633h3.611c-1.215 3.443-4.32 5.604-8.135 5.604-5.03 0-8.844-3.815-8.844-8.81C20.89 11.847 24.57 8 29.565 8c5.266 0 8.473 4.118 8.473 8.911ZM25.25 15.055h9.07c-.453-2.526-2.283-4.118-4.617-4.118-2.3 0-3.939 1.66-4.453 4.118Zm18.831-2.228c0-1.08 1.047-2.06 3.207-2.06 2.666 0 3.983 1.216 4.22 3.106h3.476C54.713 10.093 51.473 8 47.321 8c-4.051 0-7.224 2.295-7.224 5.57 0 6.953 11.004 3.409 11.004 7.156 0 1.046-1.181 2.093-3.612 2.093-2.497 0-4.017-1.317-4.219-3.106h-3.477c.236 3.747 3.51 5.873 7.865 5.873 4.22 0 7.494-2.295 7.494-5.603 0-6.954-11.072-3.443-11.072-7.156Zm21.603-1.789c2.397 0 4.152 1.418 4.726 3.95h3.68C73.379 10.666 69.868 8 65.379 8c-5.13 0-8.776 3.78-8.776 8.81 0 5.03 3.747 8.777 8.912 8.777 4.32 0 7.797-2.836 8.506-6.988h-3.612c-.574 2.464-2.329 3.916-4.726 3.916-2.869 0-4.86-2.397-4.86-5.739 0-3.409 1.991-5.738 4.86-5.738Zm23.494-2.7h4.22v16.91h-4.22v-2.396c-1.34 1.773-3.325 2.735-5.603 2.735-4.59 0-8.068-3.815-8.068-8.81 0-4.963 3.51-8.777 8.135-8.777 2.25 0 4.21.942 5.536 2.691V8.338Zm0 8.438c0-3.443-1.991-5.738-4.726-5.738-2.734 0-4.725 2.295-4.725 5.738 0 3.477 1.991 5.773 4.725 5.773 2.735 0 4.726-2.296 4.726-5.773Zm25.148 0c0 4.996-3.511 8.81-8.135 8.81-2.25 0-4.21-.953-5.536-2.71V32h-4.22V8.338h4.22v2.377C101.993 8.952 103.98 8 106.257 8c4.591 0 8.068 3.814 8.068 8.776Zm-4.22 0c0-3.443-1.991-5.738-4.725-5.738-2.734 0-4.726 2.295-4.726 5.738 0 3.477 1.992 5.773 4.726 5.773s4.725-2.296 4.725-5.773Zm23.055 1.148h-12.877c.418 2.772 2.344 4.692 4.877 4.692 1.789 0 3.275-.878 4.22-2.633h3.612c-1.216 3.443-4.321 5.604-8.136 5.604-5.029 0-8.843-3.815-8.843-8.81 0-4.929 3.679-8.777 8.675-8.777 5.266 0 8.472 4.118 8.472 8.911v1.013Zm-12.789-2.87h9.069c-.452-2.525-2.281-4.117-4.616-4.117-2.299 0-3.938 1.66-4.453 4.118Z"></path></svg>