<?xml version="1.0" encoding="utf-8"?>
<!-- Generator: Adobe Illustrator 19.0.0, SVG Export Plug-In . SVG Version: 6.00 Build 0)  -->
<svg version="1.1" id="layer" xmlns="http://www.w3.org/2000/svg" xmlns:xlink="http://www.w3.org/1999/xlink" x="0px" y="0px"
	 viewBox="-153 -46 652 652" style="enable-background:new -153 -46 652 652;" xml:space="preserve">
<g id="Symbols">
	<g id="logo" transform="translate(-14.000000, -8.000000)">
		<g id="Group-33">
			<path id="Fill-2" d="M469.3,238.8c0,0.9,0.2,1.8,0.5,2.5c0.3,0.8,0.8,1.5,1.4,2c0.6,0.6,1.3,1,2,1.3c0.8,0.3,1.6,0.5,2.5,0.5
				c0.9,0,1.7-0.2,2.5-0.5c0.8-0.3,1.4-0.8,2-1.3c0.6-0.6,1-1.3,1.4-2c0.3-0.8,0.5-1.6,0.5-2.5c0-0.9-0.2-1.7-0.5-2.5
				c-0.4-0.8-0.8-1.4-1.4-2c-0.6-0.6-1.2-1-2-1.3c-0.8-0.3-1.6-0.5-2.5-0.5c-0.9,0-1.7,0.2-2.5,0.5c-0.8,0.3-1.4,0.8-2,1.3
				c-0.6,0.6-1,1.2-1.4,2C469.4,237.1,469.3,237.9,469.3,238.8L469.3,238.8z M470.4,238.8c0-0.8,0.1-1.5,0.4-2.1
				c0.3-0.7,0.6-1.2,1.1-1.7c0.5-0.5,1-0.9,1.7-1.1c0.6-0.3,1.3-0.4,2.1-0.4c0.7,0,1.4,0.1,2,0.4c0.6,0.3,1.2,0.7,1.6,1.1
				c0.5,0.5,0.8,1,1.1,1.7c0.3,0.7,0.4,1.4,0.4,2.1c0,0.8-0.1,1.5-0.4,2.2c-0.3,0.6-0.6,1.2-1.1,1.7c-0.5,0.5-1,0.9-1.6,1.2
				c-0.6,0.3-1.3,0.4-2,0.4c-0.7,0-1.4-0.1-2.1-0.4c-0.6-0.3-1.2-0.7-1.7-1.2c-0.5-0.5-0.8-1.1-1.1-1.7
				C470.5,240.3,470.4,239.6,470.4,238.8L470.4,238.8z M473.2,235.1v7.4h1.2v-3.2h1.2l2,3.2h1.2l-2.1-3.3c0.6-0.1,1-0.2,1.4-0.5
				c0.4-0.3,0.6-0.8,0.6-1.5c0-0.7-0.2-1.2-0.6-1.6c-0.4-0.3-1.1-0.5-2-0.5H473.2z M474.3,238.4v-2.4h1.5c0.2,0,0.4,0,0.6,0.1
				c0.2,0,0.4,0.1,0.5,0.1c0.2,0.1,0.3,0.2,0.4,0.4c0.1,0.1,0.2,0.3,0.2,0.6c0,0.3-0.1,0.5-0.2,0.7c-0.1,0.2-0.2,0.3-0.4,0.3
				c-0.2,0.1-0.4,0.1-0.6,0.2c-0.2,0-0.5,0-0.7,0H474.3z"/>
			<path id="Fill-4" d="M52.6,298c-0.3-2.5-3-4-7.2-4.1c-5.5,0.7-11.8,1-11.8,1c-21.3,0-25.2-11.8-25.2-18.3
				c0-22.8,46.3-27.2,46.3,0.3c0,20.2-1.4,26.9,2.9,28.6c6.6,2.6,13,1.4,15.9,0.1c6.9-3.1,4.4-5.3,4.4-33.6c0-9.9-21.6-28-48.1-26.7
				C7,246.4-16.1,254.8-18,276.7c-0.6,6.3,5.5,31,48.7,30.3C50.6,306.7,53.9,303.2,52.6,298"/>
			<path id="Fill-6" d="M322.4,307c-26.7,0-45.8-14.5-45.8-31.2c0-16.7,19.4-30.6,46.1-30.6c26.7,0,46.6,13.9,46.6,30.6
				C369.3,292.6,349.1,307,322.4,307 M300.7,276.5c0,10.1,10,18.3,22.2,18.3c12.3,0,22.3-8.2,22.3-18.3c0-10.1-10-18.4-22.3-18.4
				C310.7,258.1,300.7,266.3,300.7,276.5"/>
			<path id="Fill-8" d="M255.5,265.5c8.2,2.7,13-3.1,12.3-5.9c-1.5-5.5-16-16.3-40.9-16.3c-42.5,0-60.9,37.4-39.8,37.4
				c32.4,0,39.9,0.2,56.4,0.2c0.4,0,1.9-0.5,1.7,1.1c-2.6,8.9-15.3,10.6-21.9,10.6c-23.1,0-21.3-8.9-28.7-8.9
				c-3.1,0-9.5,0.9-9.5,6.1c0,3.4,12.1,17.1,44.4,17.1c10.6,0,42.7-4.8,45.1-31.2c0.3-2.9-2.7-7.1-8.1-7.1
				c-18.3,0-33.9-0.2-57.6-0.2c-2.3,0-1.3-10.4,21.8-10.4C245,258.1,253.8,265,255.5,265.5"/>
			<path id="Fill-10" d="M157.3,267.3c8.2,2.7,13-3.1,12.3-5.9c-1.5-5.5-16-16.3-40.9-16.3c-42.5,0-60.9,37.5-39.8,37.4
				c32-0.1,39.9,0.2,56.4,0.2c0.4,0,1.9-0.5,1.7,1.1c-2.6,8.9-15.3,10.6-21.9,10.6c-23.1,0-21.3-8.9-28.7-8.9
				c-3.1,0-9.5,0.9-9.5,6.1c0,3.4,12.1,17.1,44.4,17.1c10.6,0,42.7-4.8,45.1-31.2c0.3-2.9-2.7-7.1-8.1-7.1
				c-18.3,0-33.9-0.2-57.6-0.2c-2.3,0-1.3-10.4,21.8-10.4C146.8,259.9,155.6,266.8,157.3,267.3"/>
			<path id="Fill-12" d="M450.1,265.5c8.2,2.7,13-3.1,12.3-5.9c-1.5-5.5-16-16.3-40.9-16.3c-42.5,0-60.9,37.4-39.8,37.4
				c32.4,0,39.9,0.2,56.4,0.2c0.4,0,1.9-0.5,1.7,1.1c-2.6,8.9-15.3,10.6-21.9,10.6c-23,0-21.4-8.9-28.7-8.9c-3.1,0-9.5,0.9-9.5,6.1
				c0,3.4,12.1,17.1,44.4,17.1c10.6,0,42.7-4.8,45.1-31.2c0.3-2.9-2.7-7.1-8.1-7.1c-18.3,0-33.9-0.2-57.6-0.2
				c-2.3,0-1.3-10.4,21.8-10.4C439.6,258.1,448.4,265,450.1,265.5"/>
			<path id="Fill-14" d="M-103.5,329.1c0.9-1.2,1.3-2.5,1.3-4.1c0-1.6-0.5-2.9-1.5-3.9c-1-1-2.4-1.5-4.2-1.5c-1.7,0-3.2,0.5-4.3,1.5
				c-1.1,1-1.6,2.4-1.6,4.3c0,1.5,0.5,2.8,1.4,3.9c0.9,1,2.5,1.6,4.6,1.6C-105.8,330.8-104.4,330.2-103.5,329.1 M-101.5,320.3
				c1.1,1.2,1.7,2.8,1.7,4.7c0,2.1-0.6,3.8-1.9,5.1c-1.5,1.6-3.6,2.4-6.4,2.4c-2.6,0-4.6-0.7-6.1-2.1c-1.3-1.4-2-3.1-2-5.1
				c0-1.9,0.6-3.5,1.7-4.8c1.4-1.7,3.6-2.5,6.4-2.5C-105.1,318-102.9,318.7-101.5,320.3"/>
			<polygon id="Fill-16" points="-70.7,318 -59.8,318 -59.8,319.7 -68.6,319.7 -68.6,324.2 -60.9,324.2 -60.9,325.9 -68.6,325.9 
				-68.6,332.5 -70.7,332.5 			"/>
			<path id="Fill-18" d="M-16,327.6c0.1,0.8,0.3,1.4,0.6,1.9c0.7,0.9,2,1.4,3.8,1.4c0.8,0,1.6-0.1,2.2-0.3c1.3-0.4,1.9-1.1,1.9-2.1
				c0-0.7-0.3-1.3-0.8-1.6c-0.5-0.3-1.4-0.6-2.6-0.8l-2.2-0.4c-1.4-0.3-2.4-0.6-3-0.9c-1-0.6-1.5-1.4-1.5-2.6c0-1.2,0.5-2.3,1.5-3.1
				c1-0.8,2.4-1.2,4.2-1.2c1.7,0,3.1,0.3,4.2,1c1.2,0.7,1.8,1.8,1.8,3.4h-2c-0.1-0.7-0.3-1.3-0.7-1.7c-0.7-0.7-1.8-1.1-3.4-1.1
				c-1.3,0-2.2,0.2-2.8,0.7c-0.6,0.5-0.8,1-0.8,1.6c0,0.7,0.3,1.2,1,1.5c0.4,0.2,1.4,0.5,2.9,0.8l2.3,0.4c1.1,0.2,1.9,0.5,2.5,0.9
				c1,0.6,1.5,1.6,1.5,2.8c0,1.5-0.7,2.6-1.9,3.3c-1.3,0.7-2.8,1-4.5,1c-2,0-3.5-0.4-4.7-1.3c-1.1-0.9-1.7-2-1.7-3.5H-16"/>
			<polygon id="Fill-20" points="27.9,318 30.9,329.8 34.5,318 36.8,318 40.3,329.8 43.3,318 45.6,318 41.5,332.5 39.3,332.5 
				35.6,320.4 32,332.5 29.7,332.5 25.6,318 			"/>
			<g id="Clip-23">
			</g>
			<polygon id="Fill-22" points="82.1,330.7 83.8,330.7 83.8,318 82.1,318 			"/>
			<polygon id="Fill-24" points="136.5,318 136.5,319.7 131.3,319.7 131.3,332.5 129.1,332.5 129.1,319.7 123.8,319.7 123.8,318 			
				"/>
			<polygon id="Fill-25" points="171.1,329.2 181,319.5 171.8,319.5 171.8,318 183.8,318 183.8,319.4 173.9,329.2 183.8,329.2 
				183.8,330.7 171.1,330.7 			"/>
			<polygon id="Fill-26" points="218.4,318 230.9,318 230.9,319.7 220.6,319.7 220.6,324.2 230.1,324.2 230.1,325.8 220.6,325.8 
				220.6,330.8 231.1,330.8 231.1,332.5 218.4,332.5 			"/>
			<path id="Fill-27" d="M265.6,318h7.1c1.2,0,2.1,0.2,2.9,0.5c1.4,0.6,2.2,1.8,2.2,3.4c0,0.9-0.2,1.6-0.6,2.1
				c-0.4,0.6-0.9,1-1.6,1.3c0.6,0.2,1.1,0.5,1.4,0.9c0.3,0.4,0.5,1,0.5,1.8l0.1,2c0,0.6,0.1,1,0.2,1.2c0.1,0.5,0.3,0.8,0.7,0.9v0.3
				h-2.5c-0.1-0.1-0.1-0.3-0.2-0.5c0-0.2-0.1-0.6-0.1-1.1l-0.1-2.4c0-1-0.4-1.6-1.1-1.9c-0.4-0.2-1-0.3-1.9-0.3h-4.7v6.2h-2.1V318z
				 M272.5,324.6c1,0,1.7-0.2,2.3-0.6c0.6-0.4,0.8-1,0.8-2c0-1-0.4-1.8-1.2-2.1c-0.4-0.2-1-0.3-1.7-0.3h-5.1v5H272.5L272.5,324.6z"
				/>
			<polygon id="Fill-28" points="314.7,318 317,318 317,330.8 325.6,330.8 325.6,332.5 314.7,332.5 			"/>
			<path id="Fill-29" d="M366.3,318h2.5l5.9,14.5h-2.4l-1.6-4.4h-6.4l-1.8,4.4h-2.3L366.3,318z M370,326.5l-2.5-6.4l-2.6,6.4H370z"
				/>
			<polygon id="Fill-30" points="407.5,318 410,318 418.1,329.7 418.1,318 420.2,318 420.2,332.5 417.8,332.5 409.5,320.7 
				409.5,332.5 407.5,332.5 			"/>
			<path id="Fill-31" d="M456.5,318h6.2c2.1,0,3.7,0.7,4.9,2.1c1,1.3,1.6,2.9,1.6,4.9c0,1.6-0.3,3-0.9,4.2c-1.1,2.2-2.9,3.3-5.6,3.3
				h-6.2V318z M462.3,330.8c0.7,0,1.3-0.1,1.8-0.2c0.8-0.3,1.5-0.8,2-1.5c0.4-0.6,0.7-1.3,0.9-2.3c0.1-0.6,0.2-1.1,0.2-1.5
				c0-1.8-0.4-3.2-1.1-4.2c-0.8-1-2-1.5-3.7-1.5h-3.7v11.2H462.3L462.3,330.8z"/>
			<polygon id="Fill-32" points="-55.3,264.6 -55.3,243.4 -76.2,264.6 -97.1,264.6 -97.1,285.8 -118,307 -97.1,307 -76.2,285.8 
				-76.2,307 -55.3,307 -55.3,285.8 -34.4,285.8 -34.4,264.6 			"/>
		</g>
	</g>
</g>
</svg>
