<svg xmlns="http://www.w3.org/2000/svg" width="200" height="35" viewBox="0 0 602.217 91.5">
    <path d="M199.2,1.5,187.8,20.4,168.6,55.5h72.3c3.3,0,3.9,2.4,2.4,5.1L240,65.7c-1.8,3.3-5.1,5.1-9,5.7H159L148.2,90.3h78c16.5,0,32.7-7.5,38.7-18.9,9.6-16.2.6-.9,9.6-16.5,6.3-10.8-.9-18.9-17.4-18.9H207.3l9.6-16.2h78L305.7.9l-78,.6Z" transform="translate(296.517 -0.6)"></path>
    <path d="M325.278,20.9c6.3-11.4-.9-18.9-17.4-18.9h-49.8c-16.2,0-32.7,7.5-38.7,18.9h66.9c2.7,0,3.3,2.4,1.5,4.8l-3.3,5.1c-1.8,3.3-5.7,5.1-9.6,5.7h-46.5l-11.1,18.9h46.5c3.3,0,3.9,2.4,2.4,5.1l-3.3,5.1c-1.8,3.3-5.1,5.1-9,5.7l-75.9-.6a238.948,238.948,0,0,0,15.3-25.5c15-27.6,24.9-44.4-25.5-44.4h-76.8c-59.7,0-65.4,18.9-82.5,50.7-13.8,24.3-14.7,38.4,27,38.4h110.4l-48.9-20.4h-3.9c-10.5,0-20.4,0-30.3-.6-19.8-.9-19.8-4.8-13.8-17.4l1.8-3.9a63.827,63.827,0,0,1,12.9-18,42.8,42.8,0,0,1,27-6.6h32.7c29.7,0,42-1.8,29.7,20.4l-3.9,7.2a22.618,22.618,0,0,1-1.8,3.9l-25.2-11.4L105.078,62l62.1,28.5s81,.6,90,.6c16.5,0,32.7-7.5,38.7-18.9,1.5-2.4,2.7-4.8,3.9-7.2,5.7-10.5,15.6-27,21.3-37.5,2.7-3.3,2.7-3,4.2-6.6Z" transform="translate(0.039 -0.8)"></path>
    <path d="M219.008,55.1c6.3-10.8-.9-18.9-17.4-18.9h-49.8l9.6-16.2h78l10.8-18.9h-78.6c-16.5,0-32.7,7.5-38.7,18.9l-29.4,51c-6.3,11.4.9,18.9,17.4,18.9h49.8c16.5,0,32.7-7.5,38.7-18.9l9.6-15.9Zm-29.1,2.1-7.2,12.3a8.416,8.416,0,0,1-4.2,3h-45c-1.5,0-1.8-1.5-1.5-3l7.5-12.3a8.416,8.416,0,0,1,4.2-3h44.4C189.908,54.8,190.508,55.7,189.908,57.2Z" transform="translate(202.609 -0.2)"></path>
    <path d="M168.153,24.7h-18a4.381,4.381,0,0,0-4.2,3l-8.4,13.8c-.6,1.5,0,3,1.5,3h18a4.381,4.381,0,0,0,4.2-3l8.4-13.8C169.953,25.9,169.353,24.7,168.153,24.7Z" transform="translate(274.763 47)"></path>
</svg>