<?xml version="1.0" encoding="UTF-8"?>
<svg width="360px" height="62px" viewBox="0 0 360 62" version="1.1" xmlns="http://www.w3.org/2000/svg" xmlns:xlink="http://www.w3.org/1999/xlink">
    <title>Group 24</title>
    <defs>
        <polygon id="path-1" points="-2.84217094e-14 0 42.2778588 0 42.2778588 43.2973634 -2.84217094e-14 43.2973634"></polygon>
    </defs>
    <g id="Page-1" stroke="none" stroke-width="1" fill="none" fill-rule="evenodd">
        <g id="Group-24">
            <path d="M357.3823,32.4131 L357.6883,32.4131 C357.7433,32.4131 357.7893,32.3961 357.8243,32.3631 C357.8613,32.3311 357.8783,32.2901 357.8783,32.2411 C357.8783,32.1931 357.8613,32.1521 357.8243,32.1191 C357.7893,32.0871 357.7433,32.0701 357.6883,32.0701 L357.3823,32.0701 L357.3823,32.4131 Z M358.2223,33.2141 L357.9173,33.2141 L357.6303,32.6801 L357.3823,32.6801 L357.3823,33.2141 L357.0963,33.2141 L357.0963,31.8021 L357.6883,31.8021 C357.8193,31.8021 357.9323,31.8481 358.0253,31.9381 C358.1183,32.0281 358.1643,32.1361 358.1643,32.2601 C358.1643,32.3391 358.1423,32.4081 358.0983,32.4701 C358.0533,32.5311 358.0093,32.5721 357.9653,32.5921 L357.8973,32.6231 L358.2223,33.2141 Z M358.3743,31.7261 C358.1573,31.5101 357.8973,31.4011 357.5923,31.4011 C357.2873,31.4011 357.0273,31.5101 356.8113,31.7261 C356.5953,31.9411 356.4863,32.2021 356.4863,32.5081 C356.4863,32.8131 356.5953,33.0741 356.8113,33.2901 C357.0273,33.5061 357.2873,33.6141 357.5923,33.6141 C357.8973,33.6141 358.1573,33.5061 358.3743,33.2901 C358.5913,33.0741 358.6993,32.8131 358.6993,32.5081 C358.6993,32.2021 358.5913,31.9411 358.3743,31.7261 L358.3743,31.7261 Z M358.5973,33.4821 C358.3263,33.7481 357.9913,33.8811 357.5923,33.8811 C357.1933,33.8811 356.8583,33.7481 356.5873,33.4821 C356.3173,33.2171 356.1813,32.8921 356.1813,32.5081 C356.1813,32.1241 356.3173,31.8001 356.5873,31.5341 C356.8583,31.2681 357.1933,31.1361 357.5923,31.1361 C357.9913,31.1361 358.3263,31.2681 358.5973,31.5341 C358.8673,31.8001 359.0033,32.1241 359.0033,32.5081 C359.0033,32.8921 358.8673,33.2171 358.5973,33.4821 L358.5973,33.4821 Z" id="Fill-1" fill="#FFF"></path>
            <path d="M336.8501,35.4834 C345.9041,35.4834 349.3731,38.8924 347.9581,46.0114 C346.5381,53.1234 341.7051,56.5394 332.6511,56.5394 C323.4591,56.5394 320.1921,53.1274 321.6641,45.7594 C322.3581,42.2864 323.9731,39.6974 326.5451,37.9884 L317.3751,35.9794 L331.5031,35.9934 L331.5031,35.9954 C333.0931,35.6574 334.8721,35.4834 336.8501,35.4834 M310.4401,45.7164 C308.2451,56.7054 314.7911,61.7584 331.6111,61.7554013 C348.2141,61.7584 356.9881,56.7054 359.1221,46.0094 C361.2561,35.3134 354.4941,30.3024 337.8841,30.3034 C321.4781,30.3034 312.5171,35.3134 310.4401,45.7164" id="Fill-3" fill="#FFF"></path>
            <path d="M308.4878,56.1329 L296.3688,56.1359 C292.0108,56.1329 289.1568,55.7589 287.2998,54.1569 C285.9028,52.9769 286.1978,51.1659 286.6898,48.6829 C286.7648,48.3029 286.8408,47.9249 286.9278,47.5069 L290.2348,30.9129 L279.9588,30.9129 L276.3688,48.8969 C275.5708,52.8959 275.7208,55.5479 278.9768,57.9869 C282.7668,60.8509 287.4018,61.1479 294.4848,61.1479 L307.4898,61.1479 L308.4878,56.1329 Z" id="Fill-5" fill="#FFF"></path>
            <path d="M252.6352,48.6192 C252.7112,48.2422 252.7872,47.8652 252.8732,47.4432 L256.1822,30.8502 L245.9032,30.8502 L242.3152,48.8342 C241.5132,52.8332 241.6692,55.4862 244.9272,57.9252 C248.7102,60.7882 253.3472,61.0852 260.4272,61.0852 L273.4302,61.0852 L274.4312,56.0712 L262.3152,56.0712 C257.9552,56.0712 255.1032,55.6962 253.2452,54.0942 C251.8492,52.9122 252.1402,51.1022 252.6352,48.6192" id="Fill-7" fill="#FFF"></path>
            <path d="M243.8793,30.8946 L226.7873,30.8946 C211.0643,30.8946 202.7913,35.8666 200.6573,46.5556 C199.5603,52.0396 201.2223,55.9926 205.7673,58.4756 C210.0623,60.8336 214.5613,61.1256 220.4833,61.1256 L237.8463,61.1256 L238.8943,55.8636 L222.0083,55.8636 C213.9093,55.8666 210.8323,53.8866 211.8513,48.4526 L240.3743,48.4526 L241.4253,43.1896 L212.9653,43.1896 C214.3263,38.4286 218.5233,36.1546 225.9443,36.1546 L242.8293,36.1546 L243.8793,30.8946 Z" id="Fill-9" fill="#FFF"></path>
            <polygon id="Fill-11" fill="#FFF" points="60.6166 38.5831 51.0536 35.9561 61.1376 35.9681 62.1496 30.8951 51.3936 30.8951 45.3576 61.1301 56.1176 61.1301"></polygon>
            <polygon id="Fill-13" fill="#FFF" points="60.477 61.1299 66.51 30.8959 79.513 30.8959 95.188 52.6229 98.485 34.5879 109.539 30.8959 103.505 61.1329 91.585 61.1299 75.116 38.2669 71.883 56.4549"></polygon>
            <path d="M124.2778,48.5391 L138.8478,48.5391 L133.7408,36.9161 L124.2778,48.5391 Z M139.9068,30.8951 L154.7088,61.1301 L143.2668,61.1301 L140.2148,53.9301 L118.9728,53.9301 L113.1788,61.1301 L102.3198,61.1301 L129.0178,30.8951 L139.9068,30.8951 Z" id="Fill-15" fill="#FFF"></path>
            <path d="M167.6074,43.9034 L168.6904,38.5124 L160.5134,36.2654 L171.8694,36.2804 L171.8694,36.2854 L182.5834,36.2854 C188.7144,36.2854 191.5714,36.9594 190.9494,40.0754 C190.3384,43.1484 187.1914,43.9034 181.0664,43.9034 L167.6074,43.9034 Z M164.1434,61.1304 L166.5124,49.2534 L178.6354,49.2544 L187.0134,61.1304 L198.5894,61.1304 L188.9194,48.4964 C195.4214,47.6554 199.5574,44.6634 200.4914,39.9884 C201.7604,33.6344 196.7964,30.8954 185.2224,30.8954 L159.8974,30.8954 L153.8574,61.1324 L164.1434,61.1304 Z" id="Fill-17" fill="#FFF"></path>
            <path d="M13.458,45.212 L14.866,38.169 L7.962,36.272 L19.316,36.285 L29.352,36.285 C36.163,36.284 38.94,37.38 38.268,40.747 C37.658,43.779 34.38,45.212 28.186,45.212 L13.458,45.212 Z M12.39,50.558 L24.844,50.558 C30.975,50.557 35.766,50.433 40.279,48.624 C44.428,46.937 46.778,44.365 47.497,40.749 C48.246,37.002 46.437,34.139 42.427,32.409 C39.664,31.231 35.036,30.895 28.364,30.8959978 L6.032,30.8959978 L-3.55271368e-15,61.13 L10.277,61.13 L12.39,50.558 Z" id="Fill-19" fill="#FFF"></path>
            <g id="Group-23" transform="translate(132.718278, 0.000000)">
                <mask id="mask-2" fill="white">
                    <use xlink:href="#path-1"></use>
                </mask>
                <g id="Clip-22"></g>
                <path d="M42.249922,9.0967 C42.011922,7.3097 40.286922,5.7017 38.136922,4.5157 C37.595922,4.2157 37.024922,3.9447 36.444922,3.7037 C36.192922,3.6007 35.941922,3.5027 35.689922,3.4067 C33.856922,2.7017 31.975922,2.1007 30.047922,1.6087 C28.520922,1.2187 26.969922,0.8967 25.390922,0.6447 C22.393922,0.1657 19.352922,-0.0473 16.318922,0.0077 L16.255922,0.0077 C16.223922,0.0077 16.190922,0.0107 16.158922,0.0107 C16.052922,0.0137 15.950922,0.0167 15.847922,0.0187 L15.538922,0.0277 C15.281922,0.0347 15.023922,0.0427 14.767922,0.0567 C14.739922,0.0597 14.712922,0.0597 14.685922,0.0627 C14.628922,0.0627 14.571922,0.0677 14.512922,0.0707 C14.333922,0.0777 14.154922,0.0887 13.976922,0.1007 C13.705922,0.1167 13.437922,0.1357 13.169922,0.1577 C12.855922,0.1817 12.538922,0.2077 12.224922,0.2387 C12.097922,0.2517 11.972922,0.2627 11.848922,0.2767 C11.715922,0.2897 11.582922,0.3027 11.453922,0.3167 C11.423922,0.3197 11.393922,0.3257 11.363922,0.3267 C11.266922,0.3387 11.168922,0.3517 11.074922,0.3627 C10.911922,0.3817 10.749922,0.4007 10.589922,0.4217 C10.445922,0.4417 10.302922,0.4597 10.161922,0.4797 C9.97892197,0.5057 9.79492197,0.5287 9.61292197,0.5547 C9.43692197,0.5817 9.25792197,0.6097 9.08192197,0.6387 C9.04192197,0.6447 8.99792197,0.6527 8.95792197,0.6587 C8.83292197,0.6767 8.70792197,0.6987 8.58392197,0.7197 C8.43992197,0.7437 8.29392197,0.7687 8.14992197,0.7957 C8.14792197,0.7957 8.14292197,0.7957 8.13692197,0.7987 C8.01492197,0.8177 7.89392197,0.8417 7.77092197,0.8637 C7.75192197,0.8667 7.73092197,0.8717 7.71192197,0.8737 C7.68192197,0.8797 7.65192197,0.8857 7.62492197,0.8907 C7.60592197,0.8937 7.58992197,0.8967 7.57092197,0.9017 C7.32792197,0.9477 7.08092197,0.9927 6.83692197,1.0447 C6.48492197,1.1177 6.13392197,1.1947 5.78392197,1.2727 C5.66292197,1.2997 5.54292197,1.3287 5.42092197,1.3567 C5.39692197,1.3647 5.36992197,1.3697 5.34592197,1.3747 C5.06192197,1.4407 4.77992197,1.5077 4.49892197,1.5807 C4.22992197,1.6487 3.96492197,1.7187 3.69992197,1.7887 C3.66692197,1.8007 3.63492197,1.8087 3.60192197,1.8167 C3.28792197,1.9037 2.97892197,1.9907 2.66792197,2.0817 C2.64592197,2.0867 2.62692197,2.0927 2.60592197,2.1007 C2.31892197,2.1847 2.03192197,2.2717 1.74492197,2.3637 C1.64192197,2.3937 1.53892197,2.4257 1.43592197,2.4607 C1.16792197,2.5447 0.902921965,2.6337 0.637921965,2.7237 C0.469921965,2.7807 0.304921965,2.8367 0.139921965,2.8967 L0.133921965,2.8967 C0.130921965,2.8997 0.125921965,2.8997 0.122921965,2.8997 C0.111921965,2.9027 0.101921965,2.9057 0.0929219654,2.9097 C-0.0630780346,2.9697 -0.00807803462,3.2007 0.149921965,3.2047 L0.152921965,3.2047 C0.168921965,3.2027 0.185921965,3.2007 0.198921965,3.1977 C0.285921965,3.1817 0.371921965,3.1677 0.458921965,3.1547 C7.18292197,1.9857 14.108922,1.9457 20.847922,3.0157 C21.262922,3.0817 21.672922,3.1667 22.085922,3.2427 C22.145922,3.2487 22.207922,3.2487 22.266922,3.2577 C23.237922,3.4067 24.610922,3.6797 26.058922,4.0827 C26.170922,4.1117 26.285922,4.1327 26.397922,4.1607 C26.560922,4.2037 26.725922,4.2477 26.890922,4.2907 C26.993922,4.3187 27.096922,4.3457 27.199922,4.3717 C27.361922,4.4127 27.529922,4.4587 27.697922,4.5107 C28.338922,4.7027 28.994922,4.9517 29.619922,5.2517 C30.561922,5.7027 31.481922,6.2687 32.213922,7.0227 C32.241922,7.0507 32.269922,7.0837 32.297922,7.1147 C32.320922,7.1377 32.341922,7.1617 32.363922,7.1857 C32.389922,7.2147 32.416922,7.2427 32.441922,7.2737 C32.710922,7.5757 32.921922,7.8947 33.061922,8.2317 C33.214922,8.5757 33.303922,8.9387 33.266922,9.3057 C33.265922,9.3457 33.252922,9.3847 33.249922,9.4247 C33.246922,9.4537 33.240922,9.4857 33.236922,9.5147 C33.213922,9.6957 33.171922,9.8727 33.108922,10.0477 C33.090922,10.1037 33.077922,10.1587 33.054922,10.2137 C33.051922,10.2227 33.044922,10.2307 33.041922,10.2397 C32.964922,10.4137 32.873922,10.5857 32.762922,10.7537 C30.863922,13.8817 23.911922,15.3657 14.912922,15.7927 C13.900922,15.8537 12.885922,15.9027 11.864922,15.9247 C10.933922,15.9467 10.002922,15.9437 9.07192197,15.9307 C8.98792197,15.9307 8.90692197,15.9327 8.82292197,15.9327 L8.82092197,15.9267 C8.43392197,15.9197 8.04492197,15.9167 7.65792197,15.9067 C7.59792197,15.9037 7.53892197,15.9037 7.47892197,15.9007 C7.33092197,15.9007 7.32292197,16.1417 7.47892197,16.1417 C7.50292197,16.1437 7.52492197,16.1437 7.54892197,16.1467 C9.17392197,16.2277 10.773922,16.4087 12.338922,16.6857 C13.456922,16.8807 14.558922,17.1267 15.641922,17.4187 C15.692922,17.4297 15.744922,17.4437 15.795922,17.4597 C16.434922,17.6457 17.552922,18.2837 16.819922,19.0307 C16.569922,19.2797 16.169922,19.4797 15.792922,19.5877 C15.736922,19.6047 15.682922,19.6177 15.627922,19.6307 C15.145922,19.7497 14.653922,19.8507 14.157922,19.9317 C13.202922,20.0887 12.224922,20.1727 11.228922,20.1807 C11.033922,20.1837 10.841922,20.1807 10.648922,20.1757 L10.643922,20.1757 C10.505922,20.1817 10.502922,20.4027 10.646922,20.4027 L10.648922,20.4027 C11.997922,20.4057 13.315922,20.5377 14.590922,20.7927 C15.100922,20.8927 15.589922,21.0067 16.085922,21.1477 C16.093922,21.1477 16.101922,21.1507 16.112922,21.1527 C16.218922,21.1737 16.326922,21.2067 16.437922,21.2467 C16.439922,21.2467 16.442922,21.2497 16.448922,21.2497 C16.791922,21.3807 17.374922,21.6777 17.312922,22.1307 C17.252922,22.5647 16.676922,22.8187 16.315922,22.9317 C16.315922,22.9317 16.310922,22.9347 16.310922,22.9317 C16.283922,22.9397 16.255922,22.9477 16.228922,22.9557 C16.199922,22.9667 16.169922,22.9747 16.139922,22.9807 C15.979922,23.0267 15.819922,23.0667 15.660922,23.1047 C14.558922,23.3677 13.407922,23.5077 12.227922,23.5187 C12.068922,23.5187 12.061922,23.7597 12.222922,23.7597 L12.222922,23.7627 C13.589922,23.7707 14.913922,23.9657 16.166922,24.3257 C16.353922,24.3767 16.540922,24.4337 16.724922,24.4957 C16.802922,24.5207 16.881922,24.5477 16.959922,24.5767 C17.247922,24.6977 17.700922,24.9407 17.699922,25.3087 C17.697922,25.6667 17.274922,25.9057 16.992922,26.0267 C16.986922,26.0267 16.984922,26.0287 16.981922,26.0287 C16.951922,26.0417 16.924922,26.0527 16.895922,26.0637 C16.875922,26.0727 16.854922,26.0797 16.835922,26.0857 C16.824922,26.0877 16.816922,26.0907 16.805922,26.0937 C16.794922,26.0987 16.783922,26.1017 16.772922,26.1047 C16.751922,26.1127 16.729922,26.1177 16.707922,26.1257 C15.998922,26.3597 15.237922,26.4897 14.450922,26.4937 C14.228922,26.4967 14.011922,26.4897 13.794922,26.4667 L13.794922,26.4727 C13.639922,26.4727 13.632922,26.7217 13.794922,26.7217 L13.794922,26.7247 C15.922922,27.1007 17.645922,28.6577 18.259922,30.6997 C18.313922,30.8777 18.359922,31.0617 18.395922,31.2477 L18.395922,31.2537 C19.336922,35.0817 19.853922,39.0757 19.892922,43.1857 C19.892922,43.3297 20.118922,43.3387 20.124922,43.1877 L20.124922,43.1827 C20.187922,37.9307 21.029922,32.8647 22.545922,28.0967 C22.628922,27.8287 22.715922,27.5637 22.805922,27.2987 C22.805922,27.2957 22.805922,27.2927 22.807922,27.2897 C22.970922,26.8087 23.138922,26.3257 23.313922,25.8497 C23.316922,25.8417 23.319922,25.8357 23.322922,25.8277 C23.425922,25.5787 23.533922,25.3327 23.646922,25.0887 C24.202922,23.8927 24.900922,22.7777 25.718922,21.7587 C27.597922,19.4197 30.103922,17.6067 32.987922,16.5747 C32.995922,16.5717 33.006922,16.5697 33.014922,16.5667 C33.266922,16.4887 33.512922,16.4067 33.761922,16.3227 C33.777922,16.3177 33.794922,16.3117 33.807922,16.3067 C34.392922,16.1087 34.972922,15.9007 35.545922,15.6807 C35.554922,15.6787 35.562922,15.6757 35.570922,15.6697 C35.924922,15.5367 36.279922,15.3967 36.631922,15.2557 C39.157922,14.1697 41.456922,12.5027 42.100922,10.5797 C42.261922,10.1027 42.316922,9.5977 42.249922,9.0967" id="Fill-21" fill="#FFF" mask="url(#mask-2)"></path>
            </g>
        </g>
    </g>
</svg>
